<?xml version="1.0" encoding="UTF-8"?>
<svg version="1.1" xmlns="http://www.w3.org/2000/svg" width="537" height="296">
<path d="M0 0 C1.16853012 -0.00335861 2.33706024 -0.00671722 3.54100037 -0.01017761 C7.3783374 -0.01962763 11.2156306 -0.02162705 15.05297852 -0.02270508 C17.0499175 -0.02510663 19.0468565 -0.02751005 21.04379517 -0.03016549 C27.30686928 -0.03827624 33.56992905 -0.04075246 39.83300781 -0.04003906 C46.29461394 -0.03943592 52.75613723 -0.0500423 59.21772236 -0.06578273 C64.77458096 -0.07883688 70.33141235 -0.08422401 75.88828617 -0.08358365 C79.20372543 -0.08332847 82.51907372 -0.08710815 85.83450127 -0.0967617 C89.52124951 -0.10649997 93.20777991 -0.10370913 96.89453125 -0.09765625 C97.99528992 -0.10327576 99.09604858 -0.10889526 100.23016357 -0.11468506 C101.72932564 -0.10839333 101.72932564 -0.10839333 103.2587738 -0.10197449 C104.56585627 -0.10279164 104.56585627 -0.10279164 105.89934444 -0.1036253 C107.99438477 0.14526367 107.99438477 0.14526367 109.99438477 2.14526367 C110.45483966 6.62784319 110.31838497 11.14178402 110.30688477 15.64526367 C110.32299805 16.90725586 110.33911133 18.16924805 110.35571289 19.46948242 C110.35635742 20.67217773 110.35700195 21.87487305 110.35766602 23.11401367 C110.36064697 24.22196289 110.36362793 25.32991211 110.36669922 26.47143555 C110.24383545 27.35379883 110.12097168 28.23616211 109.99438477 29.14526367 C106.77953781 31.28849497 105.95493947 31.3953563 102.25914001 31.39682007 C101.2850116 31.40220291 100.31088318 31.40758575 99.30723572 31.41313171 C98.23969559 31.40900772 97.17215546 31.40488373 96.07226562 31.40063477 C94.94672272 31.40425522 93.82117981 31.40787567 92.66152954 31.41160583 C90.21266936 31.41850855 87.76379378 31.42100364 85.31492424 31.41965866 C81.43466139 31.41869507 77.55467683 31.43161788 73.67445374 31.44863892 C62.64024979 31.49495056 51.6060749 31.51958378 40.57177734 31.52612305 C33.82492596 31.53029021 27.07840337 31.55544904 20.33163643 31.59144974 C17.76374608 31.60123178 15.19581601 31.60358845 12.62791252 31.59827805 C9.02571915 31.59118141 5.42437854 31.60854667 1.82226562 31.63110352 C0.76889511 31.62293106 -0.2844754 31.61475861 -1.36976624 31.6063385 C-8.18480198 31.68192071 -14.00757358 32.76009144 -20.00561523 36.14526367 C-27.65553908 44.94267609 -26.33536546 60.00935802 -26.26635742 71.04931641 C-26.25563856 73.07834859 -26.26633016 75.10649236 -26.27905273 77.13549805 C-26.66110624 94.62278356 -26.66110624 94.62278356 -20.00561523 110.14526367 C-18.11806412 111.6168646 -18.11806412 111.6168646 -16.06811523 112.45776367 C-15.4197168 112.76327148 -14.77131836 113.0687793 -14.10327148 113.38354492 C-9.17466259 115.17326324 -4.3502778 115.28918013 0.84228516 115.2746582 C1.61687576 115.27641052 2.39146637 115.27816284 3.18952942 115.27996826 C5.74038966 115.28435617 8.29118012 115.28145986 10.84204102 115.27807617 C12.61893222 115.27875002 14.39582334 115.27972073 16.17271423 115.28097534 C19.89233276 115.28244811 23.61192724 115.28031101 27.33154297 115.27563477 C32.09865002 115.26993358 36.86570082 115.27322162 41.63280582 115.27920723 C45.30021081 115.28282065 48.96760247 115.28167073 52.63500786 115.27907944 C54.39287765 115.27841255 56.15074865 115.27923029 57.90861702 115.28155899 C60.36440364 115.28409874 62.82009908 115.28022639 65.27587891 115.2746582 C66.00170166 115.27668243 66.72752441 115.27870667 67.4753418 115.28079224 C70.7917009 115.26686391 73.82329722 115.17314024 76.99438477 114.14526367 C78.76173979 107.40722264 79.12476736 101.18028524 79.05688477 94.25854492 C79.05011719 92.94110291 79.05011719 92.94110291 79.04321289 91.5970459 C79.03151279 89.44642206 79.01358033 87.29583367 78.99438477 85.14526367 C77.78289009 85.15525642 77.78289009 85.15525642 76.54692078 85.16545105 C68.9396268 85.22553424 61.33244768 85.27122369 53.72497845 85.30070019 C49.8137825 85.31636376 45.90278243 85.3376143 41.99169922 85.37158203 C38.21806218 85.40415136 34.44461367 85.42211148 30.67084694 85.4298954 C29.2303044 85.43544333 27.78977231 85.44627703 26.34930992 85.46245384 C24.33356137 85.48419326 22.31762356 85.48548878 20.30175781 85.48583984 C19.15370163 85.49250168 18.00564545 85.49916351 16.82279968 85.50602722 C13.99438477 85.14526367 13.99438477 85.14526367 12.1234436 83.7570343 C10.61785931 81.60776053 10.6214122 80.19365653 10.63110352 77.58276367 C10.63207031 76.26405273 10.63207031 76.26405273 10.63305664 74.91870117 C10.64916992 74.0034668 10.6652832 73.08823242 10.68188477 72.14526367 C10.67866211 71.2300293 10.67543945 70.31479492 10.67211914 69.37182617 C10.72716538 62.54609275 10.72716538 62.54609275 12.99438477 59.14526367 C15.9980333 58.84326703 18.79618444 58.73602302 21.80273438 58.75708008 C23.17119759 58.74919464 23.17119759 58.74919464 24.56730652 58.7411499 C27.59395285 58.72790717 30.6200765 58.73670383 33.64672852 58.74682617 C35.74418743 58.74480649 37.84164567 58.74189594 39.93910217 58.73812866 C44.34000316 58.73369937 48.74072174 58.74015521 53.14160156 58.75415039 C58.7890092 58.77123201 64.43598883 58.76141126 70.0833807 58.743433 C74.41646053 58.73260256 78.74943858 58.7360383 83.08252144 58.74381638 C85.16498426 58.74582097 87.24745626 58.74335005 89.32990837 58.73637772 C92.23906874 58.72877664 95.14753228 58.74034918 98.05664062 58.75708008 C99.35420288 58.74797104 99.35420288 58.74797104 100.67797852 58.73867798 C106.55883629 58.8014793 106.55883629 58.8014793 108.71531963 60.5036211 C110.62788672 62.95834484 110.37566483 64.93930232 110.38256836 68.01855469 C110.39202484 69.2273378 110.40148132 70.43612091 110.41122437 71.68153381 C110.40211533 73.64551369 110.40211533 73.64551369 110.39282227 75.64916992 C110.39484473 77.01098283 110.39775761 78.37279467 110.40151978 79.73460388 C110.40594554 82.5936816 110.39951137 85.45247838 110.38549805 88.31152344 C110.36851909 91.95057977 110.37817275 95.58896675 110.39621544 99.22799778 C110.40714426 102.0447223 110.40356378 104.86129279 110.39583206 107.67802238 C110.39289261 109.66414197 110.40191195 111.65026786 110.41122437 113.6363678 C110.33658326 123.3515947 109.42459484 132.42901158 102.99438477 140.14526367 C95.82457596 145.88111072 88.87346466 146.44341533 80.05859375 146.40405273 C79.08519547 146.40755737 78.11179718 146.41106201 77.10890198 146.41467285 C73.90268742 146.4234474 70.69669519 146.41765281 67.49047852 146.41088867 C65.24715635 146.41223731 63.00383447 146.4141795 60.76051331 146.41668701 C56.05906389 146.41963314 51.35769055 146.41535984 46.65625 146.40600586 C40.66376594 146.3946578 34.67146198 146.40114455 28.67898464 146.41315079 C24.04353003 146.42042261 19.40811717 146.41805637 14.77266121 146.4128952 C12.5653182 146.41157098 10.35797128 146.41316285 8.15063286 146.41785431 C-32.3946147 146.48507736 -32.3946147 146.48507736 -47.72045898 132.59057617 C-58.4965153 121.12902009 -59.3234394 106.07444568 -59.30639648 91.18823242 C-59.31029537 89.75393045 -59.31463244 88.31962961 -59.31938171 86.8853302 C-59.3267999 83.89242801 -59.32658533 80.89964387 -59.32128906 77.90673828 C-59.31550637 74.10791686 -59.33241762 70.30958491 -59.35563374 66.51084423 C-59.37050592 63.55163337 -59.37122457 60.59253668 -59.36812401 57.63329506 C-59.36863068 56.2345311 -59.37374255 54.83575961 -59.38393593 53.4370327 C-59.47596385 39.04402719 -57.74629528 25.12998158 -48.03686523 13.86010742 C-35.11280497 1.33407075 -17.0460378 -0.00710943 0 0 Z " fill="#469AD4" transform="translate(415.005615234375,65.854736328125)"/>
<path d="M0 0 C2.38866341 0.0150781 4.77733606 0.02876096 7.16601562 0.04101562 C12.96504831 0.07376372 18.76372993 0.12371367 24.5625 0.1875 C25.90502168 4.43465304 27.23491974 8.68565512 28.5625 12.9375 C28.9440625 14.1440625 29.325625 15.350625 29.71875 16.59375 C30.0796875 17.75390625 30.440625 18.9140625 30.8125 20.109375 C31.31523437 21.71184082 31.31523437 21.71184082 31.828125 23.34667969 C32.5625 26.1875 32.5625 26.1875 32.5625 30.1875 C31.91849747 30.19336624 31.27449493 30.19923248 30.61097717 30.20527649 C23.87798292 30.26945745 17.14545577 30.35394007 10.4128418 30.44995117 C7.90379006 30.48310332 5.39466548 30.51116514 2.88549805 30.53393555 C-0.73159681 30.5676597 -4.34803002 30.61998627 -7.96484375 30.67578125 C-9.07770248 30.68217117 -10.19056122 30.6885611 -11.33714294 30.69514465 C-18.77526249 30.8339871 -26.24985168 31.16332082 -31.875 36.5 C-36.25954131 44.04141105 -36.59295823 52.2465812 -36.60546875 60.76171875 C-36.60879715 61.56680374 -36.61212555 62.37188873 -36.61555481 63.20137024 C-36.62059295 64.89815708 -36.6229641 66.59495373 -36.62280273 68.29174805 C-36.62497896 70.85026956 -36.64313968 73.408352 -36.66210938 75.96679688 C-37.36845563 93.22324725 -37.36845563 93.22324725 -30.4375 108.1875 C-24.35730484 111.93910978 -18.67772511 112.33671709 -11.68139648 112.31689453 C-10.91655945 112.31864685 -10.15172241 112.32039917 -9.3637085 112.32220459 C-6.84531357 112.32659201 -4.32698934 112.32369637 -1.80859375 112.3203125 C-0.05412279 112.32098636 1.70034808 112.32195708 3.45481873 112.32321167 C7.12735892 112.32468437 10.79987475 112.32254756 14.47241211 112.31787109 C19.17898526 112.31216986 23.88550142 112.31545802 28.59207249 112.32144356 C32.21315439 112.32505711 35.83422279 112.32390699 39.4553051 112.32131577 C41.19084619 112.32064892 42.92638852 112.32146647 44.66192818 112.32379532 C47.08658219 112.3263353 49.51114388 112.3224624 51.93579102 112.31689453 C52.65226303 112.31891876 53.36873505 112.32094299 54.10691833 112.32302856 C57.4032647 112.30900859 60.41018831 112.2054422 63.5625 111.1875 C64.50716756 107.94671875 64.75348828 104.91524345 64.87890625 101.546875 C64.92080078 100.47695312 64.96269531 99.40703125 65.00585938 98.3046875 C65.04517578 97.19351563 65.08449219 96.08234375 65.125 94.9375 C65.16818359 93.81085938 65.21136719 92.68421875 65.25585938 91.5234375 C65.36182015 88.74491046 65.46389142 85.96629609 65.5625 83.1875 C64.77989304 83.19194122 63.99728607 83.19638245 63.19096375 83.20095825 C55.81911724 83.24101627 48.44732344 83.27147484 41.07539654 83.29112434 C37.28532459 83.30156591 33.4953425 83.31573182 29.70532227 83.33837891 C26.04840523 83.36009413 22.39157469 83.37206582 18.73459816 83.37725449 C17.33872936 83.38095263 15.94286534 83.38817411 14.54703331 83.39896011 C12.59349551 83.41345663 10.63987087 83.41431676 8.6862793 83.41455078 C7.5737529 83.418992 6.4612265 83.42343323 5.31498718 83.42800903 C2.5625 83.1875 2.5625 83.1875 -0.4375 81.1875 C-0.82568359 78.97265625 -0.82568359 78.97265625 -0.8359375 76.25 C-0.83980469 75.27289063 -0.84367187 74.29578125 -0.84765625 73.2890625 C-0.83605469 72.26554687 -0.82445313 71.24203125 -0.8125 70.1875 C-0.82410156 69.16398437 -0.83570312 68.14046875 -0.84765625 67.0859375 C-0.84378906 66.10882813 -0.83992188 65.13171875 -0.8359375 64.125 C-0.83255371 63.22652344 -0.82916992 62.32804687 -0.82568359 61.40234375 C-0.63353271 60.30599609 -0.63353271 60.30599609 -0.4375 59.1875 C3.40349673 56.62683552 6.55575608 56.89202045 11.00952148 56.89697266 C11.87160217 56.89025543 12.73368286 56.88353821 13.62188721 56.87661743 C16.47584777 56.85759642 19.32957372 56.8537113 22.18359375 56.8515625 C24.16512652 56.84513787 26.14665833 56.83840976 28.12818909 56.83139038 C32.28347982 56.81940766 36.43868735 56.81571063 40.59399414 56.81689453 C45.9218603 56.81709788 51.24919398 56.78978392 56.57693386 56.75535011 C60.66985023 56.73312793 64.76263746 56.72905554 68.85560799 56.73011398 C70.82003682 56.72775141 72.78446886 56.71889115 74.74883842 56.70344925 C77.49496799 56.68388206 80.23993625 56.68959037 82.98608398 56.70166016 C84.20576622 56.68480164 84.20576622 56.68480164 85.4500885 56.66760254 C88.92663633 56.70648759 91.1476487 56.90905382 94.06716919 58.86862183 C95.90808939 61.72342134 96.06363797 63.38960959 96.06420898 66.77539062 C96.07358994 67.89755981 96.08297089 69.019729 96.09263611 70.17590332 C96.07578514 71.99148743 96.07578514 71.99148743 96.05859375 73.84375 C96.06004898 75.09700073 96.06150421 76.35025146 96.06300354 77.64147949 C96.06134224 80.29832451 96.05184385 82.95374321 96.02905273 85.61035156 C96.00646941 88.31436055 95.99927367 91.01759178 96.00854492 93.72167969 C96.02124649 97.63759587 96.01237296 101.55285646 95.99609375 105.46875 C95.99902939 106.66294556 96.00196503 107.85714111 96.00498962 109.08752441 C95.88800111 119.67008534 94.98967565 129.46455553 87.671875 137.56640625 C81.5074798 142.30385812 75.70515833 142.62711061 68.19946289 142.59155273 C67.18050934 142.59841599 66.16155579 142.60527924 65.11172485 142.61235046 C61.75272556 142.63060512 58.3941944 142.62677978 55.03515625 142.62109375 C52.68452301 142.62565895 50.3338911 142.63096553 47.98326111 142.63697815 C43.054785 142.64590879 38.12647089 142.64348979 33.19799805 142.63354492 C26.92082489 142.62210574 20.64421852 142.64218974 14.36711979 142.67146206 C9.50852471 142.6899323 4.6500624 142.68950927 -0.20855904 142.68382454 C-2.52031812 142.68367238 -4.83208682 142.68962876 -7.14381218 142.70211601 C-25.34148783 142.78650774 -43.47662296 142.45755509 -57.6875 129.5625 C-69.25031454 117.3317141 -69.58583451 99.47890568 -69.60546875 83.61328125 C-69.60879715 82.64577438 -69.61212555 81.67826752 -69.61555481 80.68144226 C-69.62057924 78.64871693 -69.62296454 76.61598348 -69.62280273 74.58325195 C-69.62498236 71.52475923 -69.64316793 68.46663201 -69.66210938 65.40820312 C-69.77980826 25.32390756 -69.77980826 25.32390756 -56.00390625 11.34375 C-40.26346138 -1.88109866 -19.25101861 -0.21251906 0 0 Z " fill="#469AD4" transform="translate(86.4375,69.8125)"/>
<path d="M0 0 C25.08 0 50.16 0 76 0 C78.04703125 6.77917969 80.0940625 13.55835937 82.203125 20.54296875 C83.50647319 24.85873521 84.80984143 29.17449559 86.11328125 33.49023438 C88.17841723 40.32798488 90.24348225 47.16575676 92.30810547 54.00366211 C93.97417714 59.52157233 95.64058308 65.0393815 97.30721283 70.55712318 C97.94039361 72.65361306 98.57345752 74.75013824 99.20639801 76.84670067 C99.81033149 78.8471291 100.41443335 80.84750671 101.01871872 82.84782887 C101.5854147 84.72389273 102.15167696 86.60008768 102.71745682 88.47642803 C103.89574277 92.37823106 105.08077876 96.27702976 106.30651855 100.16421509 C106.67426392 101.33245819 107.04200928 102.50070129 107.42089844 103.7043457 C107.88662262 105.16056084 107.88662262 105.16056084 108.36175537 106.64619446 C109 109 109 109 109 112 C110.28595062 111.99333817 111.57190125 111.98667633 112.89682007 111.97981262 C124.99284203 111.91909946 137.08883323 111.87407454 149.18497276 111.84456348 C155.40430406 111.82888173 161.62351273 111.80759766 167.84277344 111.77368164 C173.84036089 111.74117774 179.83783011 111.72316592 185.83549881 111.71536827 C188.1281381 111.70980861 190.42077064 111.69895257 192.71335983 111.68280983 C195.91500785 111.66115492 199.1161621 111.65802808 202.31787109 111.65942383 C203.27380661 111.648638 204.22974213 111.63785217 205.21464539 111.6267395 C206.08405258 111.63086349 206.95345978 111.63498749 207.84921265 111.63923645 C208.9857834 111.63508838 208.9857834 111.63508838 210.14531517 111.63085651 C210.75736116 111.75267386 211.36940716 111.87449121 212 112 C214.2380858 115.3571287 214.25650054 116.51137364 214.265625 120.4375 C214.26820313 121.49710937 214.27078125 122.55671875 214.2734375 123.6484375 C214.26570312 124.75445312 214.25796875 125.86046875 214.25 127 C214.25773438 128.10601562 214.26546875 129.21203125 214.2734375 130.3515625 C214.27085937 131.41117188 214.26828125 132.47078125 214.265625 133.5625 C214.26336914 134.53316406 214.26111328 135.50382813 214.25878906 136.50390625 C214 139 214 139 212 142 C209.80173302 142.36914349 209.80173302 142.36914349 207.01400757 142.36076355 C205.95948898 142.36488754 204.9049704 142.36901154 203.8184967 142.3732605 C202.65684494 142.36247467 201.49519318 142.35168884 200.29833984 142.34057617 C198.46910728 142.34123329 198.46910728 142.34123329 196.60292053 142.34190369 C193.25375602 142.34016855 189.9051425 142.32509703 186.55607557 142.30418181 C183.05804019 142.28546052 179.55999791 142.28366818 176.06192017 142.28010559 C169.43558819 142.2707717 162.80940425 142.24613988 156.18313754 142.21605712 C148.64032932 142.1825548 141.09751413 142.16603762 133.55465007 142.15097082 C118.03634757 142.11959138 102.51819285 142.06680494 87 142 C85.66312405 138.13800301 84.54669343 134.31858101 83.65356445 130.33154297 C79.23559333 111.08535511 73.74519606 92.28575718 67.90112305 73.43096924 C66.69431887 69.53135681 65.49685098 65.62887987 64.29882812 61.7265625 C62.95189023 57.33987958 61.60427716 52.95342726 60.24882507 48.56936646 C60.04500717 47.90950241 59.84118927 47.24963837 59.63119507 46.56977844 C59.08488278 44.80173412 58.53779612 43.03392913 57.99064636 41.2661438 C56.95610862 37.85529087 55.97918665 34.42715327 55 31 C39.82 30.67 24.64 30.34 9 30 C6.778343 24.07558134 4.71617527 18.20875437 2.8125 12.1875 C2.53986328 11.34251953 2.26722656 10.49753906 1.98632812 9.62695312 C1.72916016 8.81548828 1.47199219 8.00402344 1.20703125 7.16796875 C0.9747583 6.43860107 0.74248535 5.7092334 0.50317383 4.95776367 C0 3 0 3 0 0 Z " fill="#FBA927" transform="translate(129,70)"/>
<path d="M0 0 C14.16000664 -0.04670052 28.32000135 -0.08184635 42.48006916 -0.10362434 C49.05469236 -0.11407506 55.62926394 -0.12825779 62.20385742 -0.15087891 C68.54508664 -0.1725613 74.88626611 -0.18455891 81.22752953 -0.18975449 C83.6505124 -0.19345853 86.07349246 -0.20069128 88.49645424 -0.21146011 C91.88221817 -0.22591375 95.26777479 -0.2279805 98.65356445 -0.22705078 C99.66200912 -0.23424133 100.6704538 -0.24143188 101.7094574 -0.24884033 C102.63072418 -0.246091 103.55199097 -0.24334167 104.50117493 -0.24050903 C105.30221303 -0.24235262 106.10325113 -0.24419621 106.92856312 -0.24609566 C109 0 109 0 112 2 C112.35644531 4.68969727 112.35644531 4.68969727 112.328125 8.06640625 C112.32296875 9.27361328 112.3178125 10.48082031 112.3125 11.72460938 C112.291875 12.99111328 112.27125 14.25761719 112.25 15.5625 C112.24484375 16.83287109 112.2396875 18.10324219 112.234375 19.41210938 C112.15369778 28.84630222 112.15369778 28.84630222 111 30 C109.65927183 30.09527037 108.31357497 30.1218877 106.96946716 30.12025452 C106.10143463 30.12162918 105.2334021 30.12300385 104.33906555 30.12442017 C103.37953476 30.12082489 102.42000397 30.11722961 101.43139648 30.11352539 C100.42663269 30.11367142 99.4218689 30.11381744 98.38665771 30.1139679 C95.04811483 30.1132683 91.70962695 30.10547374 88.37109375 30.09765625 C86.06323782 30.09579224 83.75538149 30.09436826 81.44752502 30.09336853 C75.35982174 30.08954204 69.27214214 30.07971065 63.18444824 30.06866455 C56.97778646 30.05845323 50.77112087 30.05387151 44.56445312 30.04882812 C32.37629165 30.0380885 20.18814779 30.02101052 8 30 C6.65747832 25.75284696 5.32758026 21.50184488 4 17.25 C3.6184375 16.0434375 3.236875 14.836875 2.84375 13.59375 C2.4828125 12.43359375 2.121875 11.2734375 1.75 10.078125 C1.24726563 8.47565918 1.24726563 8.47565918 0.734375 6.84082031 C0 4 0 4 0 0 Z " fill="#FBA927" transform="translate(223,69)"/>
<path d="M0 0 C3.40654184 2.14760246 5.77828524 4.11272577 7 8 C7.46090065 12.14810581 7.25512934 14.46933096 5.4375 18.25 C2.46940392 21.59862121 0.292174 22.7632719 -4 24 C-8.56377786 24 -10.37430059 23.53048428 -13.875 20.5625 C-17.13377365 16.63280237 -17.2907271 14.22479826 -17.2109375 9.25390625 C-16.91443864 6.08576101 -16.10386362 4.38437877 -14 2 C-9.28449068 -1.28989023 -5.37858461 -1.64130005 0 0 Z " fill="#FBA927" transform="translate(270,224)"/>
<path d="M0 0 C3.13921957 2.60488433 5.69148327 4.79630908 6.2734375 8.953125 C6.46705933 13.33195718 6.26001932 15.5530918 4 19.4375 C0.44082838 22.47762576 -2.30034807 23.89298705 -7 24 C-11.01314325 22.75000456 -14.42763723 21.42981703 -17 18 C-18.50650776 13.48047673 -18.74563919 9.64040622 -16.75 5.25 C-12.24637844 -0.54037058 -7.09177707 -2.0597949 0 0 Z " fill="#FBA927" transform="translate(329,224)"/>
</svg>
